# https://github.com/mikedh/trimesh
v 0.52573111 0.85065081 0.00000000
v 0.00000000 0.52573111 0.85065081
v 0.00000000 0.52573111 -0.85065081
v 0.85065081 0.00000000 -0.52573111
v 0.85065081 0.00000000 0.52573111
v 0.00000000 1.00000000 0.00000000
v 0.30901699 0.80901699 0.50000000
v 0.00000000 0.00000000 1.00000000
v 0.30901699 0.80901699 -0.50000000
v 0.00000000 0.00000000 -1.00000000
v 0.80901699 0.50000000 -0.30901699
v 0.50000000 0.30901699 -0.80901699
v 0.80901699 0.50000000 0.30901699
v 0.50000000 0.30901699 0.80901699
v 1.00000000 0.00000000 0.00000000
v 0.27326653 0.96193836 0.00000000
v 0.43388856 0.86266848 0.25989191
v 0.16062204 0.69378048 0.70204644
v 0.16245985 0.95105652 0.26286556
v 0.00000000 0.85065081 0.52573111
v 0.00000000 0.27326653 0.96193836
v 0.43388856 0.86266848 -0.25989191
v 0.16062204 0.69378048 -0.70204644
v 0.16245985 0.95105652 -0.26286556
v 0.00000000 0.85065081 -0.52573111
v 0.00000000 0.27326653 -0.96193836
v 0.69378048 0.70204644 -0.16062204
v 0.86266848 0.25989191 -0.43388856
v 0.58778525 0.68819096 -0.42532540
v 0.25989191 0.43388856 -0.86266848
v 0.70204644 0.16062204 -0.69378048
v 0.42532540 0.58778525 -0.68819096
v 0.26286556 0.16245985 -0.95105652
v 0.68819096 0.42532540 -0.58778525
v 0.52573111 0.00000000 -0.85065081
v 0.69378048 0.70204644 0.16062204
v 0.86266848 0.25989191 0.43388856
v 0.58778525 0.68819096 0.42532540
v 0.85065081 0.52573111 0.00000000
v 0.25989191 0.43388856 0.86266848
v 0.70204644 0.16062204 0.69378048
v 0.42532540 0.58778525 0.68819096
v 0.26286556 0.16245985 0.95105652
v 0.68819096 0.42532540 0.58778525
v 0.52573111 0.00000000 0.85065081
v 0.96193836 0.00000000 -0.27326653
v 0.96193836 0.00000000 0.27326653
v 0.95105652 0.26286556 -0.16245985
v 0.95105652 0.26286556 0.16245985
v 0.40335535 0.91504342 0.00000000
v 0.13795224 0.99043888 0.00000000
v 0.48444164 0.86492934 0.13120038
v 0.37503857 0.84391147 0.38361373
v 0.35822879 0.92430460 0.13165537
v 0.08108629 0.61564202 0.78384304
v 0.23708633 0.75865230 0.60682515
v 0.00000000 0.70290703 0.71128173
v 0.08224247 0.98768834 0.13307110
v 0.23867693 0.89100652 0.38618739
v 0.22011703 0.96639260 0.13279248
v 0.00000000 0.96386126 0.26640470
v 0.30125888 0.91624418 0.26408275
v 0.15643447 0.84017789 0.51925849
v 0.08114185 0.78020437 0.62023958
v 0.08232358 0.91298249 0.39960705
v 0.00000000 0.40335535 0.91504342
v 0.00000000 0.13795224 0.99043888
v 0.48444164 0.86492934 -0.13120038
v 0.37503857 0.84391147 -0.38361373
v 0.35822879 0.92430460 -0.13165537
v 0.08108629 0.61564202 -0.78384304
v 0.23708633 0.75865230 -0.60682515
v 0.00000000 0.70290703 -0.71128173
v 0.08224247 0.98768834 -0.13307110
v 0.23867693 0.89100652 -0.38618739
v 0.22011703 0.96639260 -0.13279248
v 0.00000000 0.96386126 -0.26640470
v 0.30125888 0.91624418 -0.26408275
v 0.15643447 0.84017789 -0.51925849
v 0.08114185 0.78020437 -0.62023958
v 0.08232358 0.91298249 -0.39960705
v 0.00000000 0.40335535 -0.91504342
v 0.00000000 0.13795224 -0.99043888
v 0.61564202 0.78384304 -0.08108629
v 0.75865230 0.60682515 -0.23708633
v 0.57125166 0.79264923 -0.21302287
v 0.86492934 0.13120038 -0.48444164
v 0.84391147 0.38361373 -0.37503857
v 0.45399050 0.75793542 -0.46842985
v 0.70710678 0.60150096 -0.37174803
v 0.51612162 0.78345170 -0.34615301
v 0.64741189 0.70230985 -0.29600459
v 0.13120038 0.48444164 -0.86492934
v 0.38361373 0.37503857 -0.84391147
v 0.21302287 0.57125166 -0.79264923
v 0.13165537 0.35822879 -0.92430460
v 0.78384304 0.08108629 -0.61564202
v 0.60682515 0.23708633 -0.75865230
v 0.79264923 0.21302287 -0.57125166
v 0.71128173 0.00000000 -0.70290703
v 0.37174803 0.70710678 -0.60150096
v 0.46842985 0.45399050 -0.75793542
v 0.29600459 0.64741189 -0.70230985
v 0.51337544 0.64657779 -0.56425421
v 0.34615301 0.51612162 -0.78345170
v 0.13307110 0.08224247 -0.98768834
v 0.38618739 0.23867693 -0.89100652
v 0.13279248 0.22011703 -0.96639260
v 0.26640470 0.00000000 -0.96386126
v 0.26408275 0.30125888 -0.91624418
v 0.75793542 0.46842985 -0.45399050
v 0.60150096 0.37174803 -0.70710678
v 0.78345170 0.34615301 -0.51612162
v 0.64657779 0.56425421 -0.51337544
v 0.70230985 0.29600459 -0.64741189
v 0.56425421 0.51337544 -0.64657779
v 0.51925849 0.15643447 -0.84017789
v 0.62023958 0.08114185 -0.78020437
v 0.39960705 0.08232358 -0.91298249
v 0.61564202 0.78384304 0.08108629
v 0.75865230 0.60682515 0.23708633
v 0.57125166 0.79264923 0.21302287
v 0.70290703 0.71128173 0.00000000
v 0.86492934 0.13120038 0.48444164
v 0.84391147 0.38361373 0.37503857
v 0.45399050 0.75793542 0.46842985
v 0.70710678 0.60150096 0.37174803
v 0.51612162 0.78345170 0.34615301
v 0.64741189 0.70230985 0.29600459
v 0.84017789 0.51925849 -0.15643447
v 0.84017789 0.51925849 0.15643447
v 0.78020437 0.62023958 -0.08114185
v 0.78020437 0.62023958 0.08114185
v 0.13120038 0.48444164 0.86492934
v 0.38361373 0.37503857 0.84391147
v 0.21302287 0.57125166 0.79264923
v 0.13165537 0.35822879 0.92430460
v 0.78384304 0.08108629 0.61564202
v 0.60682515 0.23708633 0.75865230
v 0.79264923 0.21302287 0.57125166
v 0.71128173 0.00000000 0.70290703
v 0.37174803 0.70710678 0.60150096
v 0.46842985 0.45399050 0.75793542
v 0.29600459 0.64741189 0.70230985
v 0.51337544 0.64657779 0.56425421
v 0.34615301 0.51612162 0.78345170
v 0.13307110 0.08224247 0.98768834
v 0.38618739 0.23867693 0.89100652
v 0.13279248 0.22011703 0.96639260
v 0.26640470 0.00000000 0.96386126
v 0.26408275 0.30125888 0.91624418
v 0.75793542 0.46842985 0.45399050
v 0.60150096 0.37174803 0.70710678
v 0.78345170 0.34615301 0.51612162
v 0.64657779 0.56425421 0.51337544
v 0.70230985 0.29600459 0.64741189
v 0.56425421 0.51337544 0.64657779
v 0.51925849 0.15643447 0.84017789
v 0.62023958 0.08114185 0.78020437
v 0.39960705 0.08232358 0.91298249
v 0.91504342 0.00000000 -0.40335535
v 0.99043888 0.00000000 -0.13795224
v 0.92430460 0.13165537 -0.35822879
v 0.91504342 0.00000000 0.40335535
v 0.99043888 0.00000000 0.13795224
v 0.92430460 0.13165537 0.35822879
v 0.89100652 0.38618739 -0.23867693
v 0.98768834 0.13307110 -0.08224247
v 0.91624418 0.26408275 -0.30125888
v 0.91298249 0.39960705 -0.08232358
v 0.96639260 0.13279248 -0.22011703
v 0.89100652 0.38618739 0.23867693
v 0.98768834 0.13307110 0.08224247
v 0.91624418 0.26408275 0.30125888
v 0.91298249 0.39960705 0.08232358
v 0.96639260 0.13279248 0.22011703
v 0.96386126 0.26640470 0.00000000
f 20 57 64
f 63 20 64
f 65 61 20
f 65 20 63
f 8 150 147
f 5 164 124
f 74 77 6
f 77 74 24
f 24 74 76
f 46 161 163
f 122 129 36
f 128 129 122
f 21 137 66
f 158 148 160
f 160 150 45
f 160 45 158
f 141 41 159
f 45 141 159
f 158 45 159
f 127 152 13
f 132 27 123
f 8 147 67
f 43 147 150
f 150 160 43
f 43 148 151
f 43 160 148
f 149 137 21
f 21 67 149
f 149 67 147
f 147 43 149
f 151 137 149
f 149 43 151
f 138 5 124
f 141 5 138
f 138 41 141
f 110 108 96
f 96 30 110
f 96 26 82
f 108 26 96
f 106 109 10
f 33 108 110
f 109 106 33
f 33 106 108
f 81 25 77
f 81 24 75
f 77 24 81
f 6 61 58
f 61 65 19
f 60 58 19
f 19 58 61
f 75 24 78
f 78 24 76
f 171 46 163
f 169 167 48
f 169 171 163
f 48 171 169
f 48 167 170
f 170 167 130
f 55 57 2
f 151 148 135
f 63 64 56
f 128 126 38
f 38 129 128
f 127 129 38
f 120 36 123
f 120 122 36
f 52 122 120
f 104 101 89
f 123 27 84
f 84 120 123
f 127 13 121
f 121 129 127
f 36 129 121
f 152 154 125
f 125 13 152
f 41 138 140
f 140 138 124
f 82 3 93
f 93 96 82
f 30 96 93
f 95 30 93
f 83 106 10
f 83 26 108
f 108 106 83
f 107 33 110
f 71 3 73
f 73 23 71
f 71 23 95
f 95 93 71
f 71 93 3
f 73 25 80
f 80 23 73
f 105 30 95
f 161 4 87
f 163 161 87
f 100 35 118
f 118 35 117
f 118 31 100
f 119 35 109
f 117 35 119
f 119 107 117
f 109 33 119
f 33 107 119
f 99 31 115
f 112 34 115
f 112 115 98
f 98 115 31
f 98 118 117
f 31 118 98
f 97 4 100
f 100 31 97
f 97 31 99
f 99 87 97
f 97 87 4
f 51 74 6
f 6 58 51
f 76 74 51
f 51 58 60
f 53 126 128
f 46 171 162
f 28 87 99
f 28 169 163
f 163 87 28
f 168 171 48
f 168 162 171
f 15 162 168
f 168 173 15
f 134 55 2
f 2 66 134
f 134 66 137
f 14 148 158
f 14 135 148
f 142 56 144
f 144 56 18
f 18 56 64
f 18 64 57
f 57 55 18
f 75 78 69
f 91 89 69
f 131 121 13
f 37 125 154
f 37 140 124
f 154 140 37
f 15 173 165
f 23 80 72
f 103 105 95
f 95 23 103
f 103 72 101
f 23 72 103
f 102 105 32
f 105 103 32
f 32 101 104
f 32 103 101
f 113 34 111
f 113 28 99
f 99 115 113
f 113 115 34
f 111 34 114
f 114 90 111
f 130 167 11
f 111 90 11
f 30 105 94
f 94 105 102
f 110 30 94
f 94 107 110
f 76 51 16
f 16 51 60
f 60 54 16
f 59 19 65
f 59 65 63
f 17 53 128
f 17 122 52
f 128 122 17
f 52 54 17
f 177 170 175
f 173 168 177
f 48 170 177
f 177 168 48
f 40 137 151
f 40 134 137
f 151 135 40
f 55 134 136
f 144 18 136
f 136 18 55
f 134 40 136
f 139 14 158
f 158 159 139
f 139 159 41
f 155 152 127
f 127 38 155
f 126 53 7
f 56 142 7
f 7 142 126
f 63 56 7
f 53 59 7
f 7 59 63
f 91 69 22
f 22 69 78
f 70 78 76
f 76 16 70
f 70 22 78
f 68 22 70
f 92 91 86
f 86 68 84
f 86 27 92
f 86 84 27
f 91 22 86
f 86 22 68
f 84 68 1
f 52 120 1
f 120 84 1
f 13 125 172
f 172 131 13
f 175 131 172
f 39 131 175
f 175 170 39
f 130 132 39
f 39 170 130
f 164 47 166
f 124 164 166
f 166 37 124
f 75 69 9
f 9 69 89
f 9 89 101
f 101 72 9
f 79 81 75
f 75 9 79
f 79 9 72
f 79 72 80
f 25 81 79
f 79 80 25
f 116 34 112
f 116 114 34
f 112 102 116
f 104 114 116
f 116 32 104
f 102 32 116
f 92 90 29
f 90 114 29
f 29 91 92
f 29 114 104
f 104 89 29
f 29 89 91
f 111 11 88
f 88 113 111
f 28 113 88
f 88 11 167
f 167 169 88
f 169 28 88
f 85 11 90
f 92 27 85
f 85 90 92
f 130 11 85
f 85 132 130
f 27 132 85
f 117 107 12
f 12 98 117
f 107 94 12
f 12 102 112
f 112 98 12
f 12 94 102
f 62 17 54
f 19 59 62
f 62 59 53
f 53 17 62
f 62 54 60
f 60 19 62
f 146 40 135
f 146 136 40
f 144 136 146
f 14 139 153
f 68 70 50
f 50 1 68
f 50 70 16
f 50 16 54
f 50 54 52
f 52 1 50
f 173 177 49
f 49 177 175
f 175 172 49
f 133 132 123
f 133 39 132
f 131 39 133
f 123 36 133
f 36 121 133
f 121 131 133
f 173 49 176
f 176 166 47
f 47 165 176
f 176 165 173
f 174 49 172
f 37 166 174
f 166 176 174
f 174 176 49
f 125 37 174
f 174 172 125
f 42 142 144
f 144 146 42
f 44 157 153
f 155 157 44
f 44 154 152
f 152 155 44
f 143 146 135
f 153 157 143
f 143 42 146
f 157 42 143
f 135 14 143
f 14 153 143
f 142 42 145
f 145 42 157
f 126 142 145
f 145 157 155
f 145 38 126
f 145 155 38
f 156 140 154
f 154 44 156
f 156 44 153
f 41 140 156
f 156 139 41
f 156 153 139
f 83 61 6
f 83 25 73
f 10 8 83
f 8 67 83
f 2 57 83
f 83 57 20
f 20 61 83
f 83 66 2
f 6 77 83
f 73 3 83
f 83 3 82
f 77 25 83
f 21 66 83
f 83 67 21
f 82 26 83
f 165 8 10
f 10 109 165
f 165 141 45
f 165 150 8
f 45 150 165
f 165 35 100
f 164 5 165
f 100 4 165
f 165 162 15
f 165 5 141
f 161 46 165
f 165 4 161
f 109 35 165
f 165 47 164
f 46 162 165

